<?xml version="1.0" standalone="no"?>
<!DOCTYPE svg PUBLIC "-//W3C//DTD SVG 20010904//EN"
 "http://www.w3.org/TR/2001/REC-SVG-20010904/DTD/svg10.dtd">
<svg version="1.0" xmlns="http://www.w3.org/2000/svg"
 width="512.000000pt" height="512.000000pt" viewBox="0 0 512.000000 512.000000"
 preserveAspectRatio="xMidYMid meet">
<metadata>
Created by potrace 1.16, written by Peter Selinger 2001-2019
</metadata>
<g transform="translate(0.000000,512.000000) scale(0.100000,-0.100000)"
fill="#000000" stroke="none">
<path d="M2740 4313 c-30 -11 -70 -57 -76 -89 -14 -77 42 -144 121 -144 55 0
105 52 105 109 0 56 -22 95 -64 115 -34 16 -59 19 -86 9z"/>
<path d="M3330 4149 c-72 -33 -107 -65 -140 -132 -17 -34 -29 -54 -26 -44 3
10 2 15 -4 12 -19 -12 -42 -116 -35 -161 6 -44 7 -44 46 -44 29 0 47 -7 65
-25 l24 -24 -7 27 c-14 49 -7 125 15 168 20 40 48 69 102 106 14 9 20 17 13
17 -6 1 -34 -17 -61 -38 -51 -41 -72 -40 -72 2 0 55 154 127 243 113 56 -9
125 -43 138 -68 10 -19 9 -20 -12 -14 -62 18 -130 18 -174 2 -62 -24 -129 -94
-156 -164 -33 -84 -30 -130 14 -197 21 -30 37 -61 37 -69 0 -20 -16 -29 -40
-21 -16 5 -20 15 -20 53 0 26 -4 52 -8 59 -4 6 -7 -15 -7 -46 0 -53 3 -62 38
-100 21 -23 45 -57 54 -76 9 -19 20 -35 24 -35 3 0 9 18 13 41 14 90 77 174
156 207 73 30 191 -1 259 -69 44 -44 62 -83 68 -149 13 -140 -87 -263 -220
-272 -33 -2 -35 -4 -22 -18 22 -24 18 -51 -12 -82 l-27 -28 -35 32 c-35 32
-35 32 -11 3 83 -98 100 -226 40 -307 -12 -16 -19 -32 -16 -35 3 -4 -6 -22
-20 -40 -14 -19 -24 -36 -23 -37 2 -2 23 -13 46 -25 44 -22 113 -77 113 -91 0
-4 -10 -12 -22 -17 -20 -9 -29 -6 -63 26 l-40 36 41 -45 c59 -65 81 -100 110
-177 23 -60 25 -80 22 -163 -5 -123 -34 -185 -127 -272 -58 -54 -51 -67 8 -14
l24 21 -6 -36 c-9 -60 -34 -108 -69 -129 -18 -11 -28 -20 -23 -20 23 0 73 40
85 69 11 27 17 31 49 31 77 0 116 97 62 153 -22 24 -22 26 -5 58 9 18 19 67
23 107 l6 74 50 19 c28 10 55 19 61 19 6 0 21 -21 32 -47 23 -53 24 -51 -37
-85 -32 -18 -43 -59 -20 -74 16 -10 2 -90 -26 -149 -16 -34 -43 -64 -80 -93
-30 -24 -62 -57 -70 -73 -10 -17 -23 -29 -36 -29 -29 0 -69 -24 -103 -60 -16
-17 -30 -29 -32 -27 -2 2 1 21 7 42 22 80 -9 183 -74 244 l-26 23 53 52 c58
57 76 102 76 187 0 110 -78 213 -184 244 -54 16 -146 18 -146 4 0 -4 -2 -13
-5 -21 -4 -10 12 -13 73 -13 70 0 84 -3 128 -30 63 -39 103 -104 111 -178 5
-48 2 -64 -21 -111 -26 -52 -72 -98 -116 -114 -20 -7 -19 -10 17 -32 20 -14
51 -45 68 -68 27 -40 30 -51 30 -120 -1 -125 -51 -197 -147 -213 l-53 -8 62 3
63 4 -6 -26 c-24 -101 -116 -139 -143 -60 -9 24 -14 29 -20 19 -12 -19 -2 -49
22 -66 28 -20 20 -25 -56 -32 l-66 -6 5 35 c11 62 -30 102 -78 77 -16 -9 -23
-9 -26 0 -5 16 -20 14 -43 -8 -20 -18 -20 -18 6 -35 16 -11 24 -23 21 -32 -3
-8 -2 -13 3 -10 5 3 12 -1 15 -10 29 -75 -40 -164 -126 -164 -57 0 -93 37
-109 110 -8 35 -8 35 -6 -7 2 -36 -1 -43 -20 -48 -12 -3 -27 -14 -33 -25 -27
-50 31 -91 73 -52 17 16 26 18 41 10 10 -6 42 -8 72 -6 29 3 51 1 48 -3 -7
-12 66 -40 88 -33 31 9 53 51 41 77 -10 22 -9 22 62 23 58 1 84 6 128 28 30
14 61 34 68 43 9 11 3 10 -18 -5 -49 -35 -110 -52 -182 -52 -100 0 -107 4
-103 50 4 38 4 38 35 29 71 -20 204 0 274 41 l32 19 7 -37 c25 -140 154 -252
289 -252 96 0 203 59 242 134 10 20 18 25 25 18 16 -16 -30 -72 -89 -111 -170
-113 -369 -55 -464 135 -16 33 -27 48 -23 34 21 -88 96 -179 179 -220 42 -21
65 -25 140 -25 112 0 163 22 252 110 48 48 65 73 77 115 38 126 10 242 -80
339 -58 63 -66 78 -33 61 31 -17 67 -4 88 31 13 20 21 26 24 18 2 -8 3 0 1 16
-3 17 -14 43 -25 58 -19 26 -20 32 -8 80 16 62 17 217 2 268 -11 36 -10 36 31
56 60 30 155 106 205 166 117 139 159 338 107 509 -32 102 -69 162 -157 250
-48 48 -84 90 -79 93 16 10 31 81 22 106 -7 18 -4 27 11 39 23 19 16 40 -14
40 -11 0 -19 -7 -19 -17 0 -14 -2 -14 -18 -2 -10 8 -9 5 3 -6 27 -26 33 -97
11 -131 -20 -29 -42 -34 -26 -5 19 37 12 96 -15 121 -34 32 -91 33 -116 1 -49
-60 -3 -141 107 -191 74 -33 157 -105 149 -129 -3 -10 6 -32 20 -51 45 -61 58
-111 53 -202 -9 -148 -61 -249 -184 -353 -47 -40 -82 -60 -131 -75 l-66 -20
-51 49 c-29 27 -67 56 -84 65 -18 9 -30 21 -27 26 3 5 31 -7 61 -26 54 -35 59
-36 133 -32 90 4 147 28 220 94 144 129 153 367 20 518 l-34 39 35 -18 c45
-22 31 -9 -50 48 -74 51 -144 82 -212 92 -45 7 -46 8 -36 31 6 13 18 24 27 24
14 0 16 15 16 103 -1 92 -4 110 -28 159 -15 31 -49 75 -75 99 -46 43 -47 45
-48 110 -1 42 -9 82 -23 113 -26 61 -151 191 -213 222 -61 31 -153 33 -218 3z
m251 -150 c83 -28 138 -102 139 -186 0 -36 -2 -40 -19 -36 -13 3 -22 17 -26
44 -20 120 -154 188 -251 128 -47 -28 -43 -33 6 -8 32 17 53 20 92 17 45 -5
57 -11 90 -46 32 -35 38 -48 38 -85 0 -58 -26 -91 -83 -105 -24 -6 -62 -25
-85 -42 -38 -27 -42 -28 -42 -11 0 22 47 61 98 81 37 15 39 23 12 50 -24 24
-33 25 -73 5 -44 -22 -70 -60 -83 -125 l-11 -55 -8 37 c-14 73 51 162 128 175
28 4 40 0 71 -28 31 -26 39 -30 47 -18 5 8 7 27 4 43 -19 105 -183 131 -264
42 -28 -30 -40 -116 -23 -166 14 -38 -2 -31 -24 12 -36 69 -5 194 60 242 59
44 139 57 207 35z m-434 -161 c-2 -13 -4 -3 -4 22 0 25 2 35 4 23 2 -13 2 -33
0 -45z m883 -609 c61 -27 120 -69 120 -85 0 -20 -5 -18 -54 20 -24 18 -67 39
-95 46 -70 17 -209 9 -244 -15 -15 -10 -30 -15 -34 -11 -9 8 -7 9 67 45 59 28
71 31 130 26 35 -3 85 -15 110 -26z m-345 -49 c-3 -5 -11 -10 -16 -10 -6 0 -7
5 -4 10 3 6 11 10 16 10 6 0 7 -4 4 -10z m373 -36 c132 -65 187 -204 151 -376
-21 -97 -54 -140 -144 -186 -57 -29 -175 -38 -183 -14 -3 10 -7 9 -16 -4 -11
-15 -16 -15 -54 5 -47 24 -50 35 -23 70 l18 24 57 -22 c31 -11 69 -21 85 -21
93 0 205 73 236 155 27 70 18 172 -20 226 -39 55 -65 64 -30 11 15 -23 31 -58
36 -79 11 -49 -6 -135 -32 -159 -19 -17 -19 -16 2 31 31 69 24 151 -17 202
-103 129 -304 99 -354 -52 -15 -47 -5 -117 21 -147 18 -20 20 -21 13 -3 -26
74 -28 93 -10 140 24 63 82 105 143 105 47 0 83 -14 83 -31 0 -6 13 -27 29
-47 28 -35 29 -40 20 -85 -7 -30 -23 -60 -44 -82 -28 -30 -39 -35 -78 -35 -52
0 -101 33 -123 85 -8 19 -13 23 -14 12 0 -31 29 -77 63 -97 39 -24 107 -26
149 -4 20 10 34 12 40 6 6 -6 17 -8 24 -5 25 9 15 -15 -13 -35 -93 -64 -196
-51 -274 35 -90 100 -73 233 40 304 24 16 40 29 34 29 -19 0 -96 -64 -120 -98
-44 -67 -41 -162 8 -234 34 -51 37 -69 8 -42 -55 48 -77 181 -44 261 8 20 14
38 11 40 -2 2 -9 -10 -16 -27 -14 -34 -19 -36 -44 -17 -24 18 -16 43 31 91 91
94 243 124 351 70z m-381 -42 c-20 -20 -40 -48 -45 -62 l-10 -25 -13 28 c-11
24 -10 30 12 53 24 26 80 56 88 48 3 -2 -12 -21 -32 -42z m663 -152 c0 -8 -12
12 -26 45 -37 88 -38 98 -4 30 16 -33 30 -67 30 -75z m-213 -34 c-9 -23 -26
-20 -36 7 -5 14 -4 25 3 29 15 10 40 -17 33 -36z m220 -18 c-3 -7 -5 -2 -5 12
0 14 2 19 5 13 2 -7 2 -19 0 -25z m8 -133 c-3 -38 -17 -100 -29 -136 -42 -121
-160 -266 -264 -322 l-51 -28 -20 47 c-12 26 -21 48 -21 49 0 2 17 9 38 16 93
30 195 101 233 162 14 23 15 34 6 48 -9 14 -7 26 10 56 12 21 27 59 33 85 9
33 16 45 26 41 16 -6 20 32 4 42 -5 3 -10 12 -10 20 0 10 5 11 26 2 25 -12 25
-14 19 -82z m-615 -59 c0 -7 -10 -22 -23 -34 l-24 -22 -19 21 c-19 21 -19 21
10 45 22 20 31 22 42 13 8 -6 14 -17 14 -23z m12 -177 c41 -21 138 -112 138
-129 0 -18 -36 -26 -92 -22 -56 4 -57 4 -73 45 -9 23 -27 58 -40 78 -35 55 -8
66 67 28z m226 -223 c13 -31 28 -82 34 -114 19 -106 -8 -282 -44 -282 -7 0
-23 -3 -35 -6 l-22 -6 20 64 c29 91 28 223 -1 303 -13 33 -27 66 -32 72 -8 9
-4 15 13 22 36 14 42 10 67 -53z m-236 -325 c1 -40 -27 -71 -64 -71 -28 0 -29
2 -23 33 10 54 26 86 43 90 25 6 43 -16 44 -52z m151 -108 c18 -17 19 -17 28
0 7 11 22 17 48 17 31 0 40 -5 50 -26 16 -37 -5 -78 -42 -82 -16 -2 -34 1 -41
7 -9 8 -18 7 -32 -3 -14 -11 -24 -11 -39 -4 -39 21 -47 59 -18 90 20 22 22 22
46 1z m2 -131 c19 -13 72 -86 96 -132 20 -38 24 -59 24 -135 0 -55 -5 -98 -13
-110 -11 -17 -12 -14 -6 25 21 144 -15 239 -121 317 -25 19 -28 24 -15 32 18
13 22 13 35 3z m-249 -17 c4 -10 19 -15 43 -15 96 0 193 -64 231 -151 45 -107
11 -217 -87 -279 -86 -55 -175 -49 -251 16 -59 50 -86 106 -86 174 1 60 10 84
57 144 26 32 29 41 19 57 -18 28 -15 37 16 53 35 19 51 20 58 1z m-808 -449
c6 -27 -25 -48 -49 -35 -22 11 -24 30 -7 47 18 18 52 10 56 -12z m256 8 c44
-43 -20 -89 -66 -47 -18 16 -18 17 4 40 25 27 41 29 62 7z"/>
<path d="M3889 2987 c-24 -19 -39 -52 -39 -89 1 -87 116 -129 170 -61 27 34
25 53 -7 113 -26 47 -30 50 -68 50 -22 -1 -47 -6 -56 -13z m106 -81 c0 -36
-27 -56 -52 -40 -40 25 -20 77 26 72 21 -2 26 -8 26 -32z"/>
<path d="M4273 2649 c-12 -21 -17 -37 -12 -33 11 6 42 64 37 69 -2 2 -13 -14
-25 -36z"/>
<path d="M4074 2395 c-8 -21 2 -45 19 -45 21 0 38 25 31 44 -8 20 -43 21 -50
1z"/>
<path d="M3762 2458 c-17 -17 -15 -48 3 -54 18 -7 45 12 45 32 0 20 -34 36
-48 22z"/>
<path d="M3947 1863 c-12 -12 -7 -43 7 -43 18 0 39 27 31 40 -7 11 -28 13 -38
3z"/>
<path d="M3758 1643 c7 -3 16 -2 19 1 4 3 -2 6 -13 5 -11 0 -14 -3 -6 -6z"/>
<path d="M3604 1598 l-29 -33 33 29 c30 28 37 36 29 36 -2 0 -16 -15 -33 -32z"/>
<path d="M3842 1593 c20 -23 39 -57 42 -75 3 -18 7 -44 9 -58 3 -17 5 -12 6
13 1 50 -19 95 -60 132 -33 30 -33 30 3 -12z"/>
<path d="M3695 1602 c-62 -14 -111 -93 -99 -159 9 -45 63 -100 108 -109 43 -8
100 18 130 59 42 58 14 174 -48 196 -36 13 -70 18 -91 13z m69 -88 c33 -32 7
-94 -40 -94 -24 0 -54 33 -54 59 0 42 63 66 94 35z"/>
<path d="M3553 1475 c0 -27 2 -38 4 -22 2 15 2 37 0 50 -2 12 -4 0 -4 -28z"/>
<path d="M3874 1402 c-17 -45 -76 -83 -142 -93 l-57 -8 57 3 c44 2 65 9 92 30
41 31 70 70 64 86 -2 6 -8 -2 -14 -18z"/>
<path d="M3580 1374 c16 -26 78 -69 87 -60 3 3 1 6 -5 6 -7 0 -31 17 -54 38
-22 20 -35 28 -28 16z"/>
<path d="M1077 4144 c-13 -14 -7 -43 12 -53 23 -13 45 8 39 36 -3 18 -38 30
-51 17z"/>
<path d="M2440 4129 c-74 -30 -134 -144 -111 -211 6 -18 19 -40 27 -50 16 -16
15 -18 -2 -24 -43 -13 -61 -23 -92 -49 -47 -40 -39 -48 16 -15 26 16 66 32 89
36 36 5 45 3 67 -19 14 -15 26 -30 26 -34 0 -4 -19 -16 -42 -26 -40 -16 -42
-16 -62 1 -12 11 -26 22 -33 26 -16 9 -43 -44 -43 -84 0 -17 -5 -41 -11 -52
-10 -19 -9 -20 15 -16 24 5 26 2 26 -29 0 -122 91 -233 190 -233 17 0 30 -5
30 -12 0 -8 3 -9 8 -3 4 6 27 20 52 33 25 12 52 32 59 45 l14 22 -24 -21 c-95
-85 -226 -63 -290 49 -30 54 -34 158 -6 200 66 101 250 118 329 30 24 -27 58
-104 58 -134 0 -22 4 -25 28 -21 62 9 100 -70 57 -118 -23 -25 -81 -27 -108
-2 -19 16 -20 16 -8 -5 14 -28 50 -53 74 -53 10 0 32 14 49 30 28 28 30 36 26
80 -5 47 -3 51 36 89 43 42 116 80 154 81 19 0 22 5 22 41 0 31 6 47 29 70 34
33 22 37 -42 15 -51 -19 -75 -42 -83 -81 -4 -21 -14 -36 -30 -44 -35 -16 -40
-14 -19 9 10 11 16 22 13 25 -6 6 -43 -46 -40 -57 1 -3 -13 -19 -31 -35 -27
-24 -40 -28 -73 -25 -38 4 -41 6 -52 48 -8 29 -29 63 -58 94 -41 44 -45 51
-38 84 17 91 93 142 176 118 24 -7 48 -14 55 -15 7 -2 22 -12 34 -23 l21 -19
-22 38 c-58 98 -158 177 -224 177 -17 0 -38 11 -56 28 -44 45 -125 63 -180 41z
m156 -113 c40 -40 43 -69 14 -125 -46 -92 -219 -96 -236 -6 -8 47 9 86 57 130
33 29 47 35 85 35 39 0 51 -5 80 -34z m162 -22 c39 -16 87 -56 104 -88 9 -17
8 -17 -20 2 -52 38 -144 26 -206 -27 -22 -18 -19 -11 21 48 15 22 21 41 17 57
-5 21 -3 24 20 24 15 0 43 -7 64 -16z m-187 -215 c-5 -13 -10 -19 -10 -12 -1
15 10 45 15 40 3 -2 0 -15 -5 -28z"/>
<path d="M2016 4099 c-23 -33 0 -79 39 -79 25 0 55 29 55 53 0 44 -68 63 -94
26z"/>
<path d="M3119 4104 c-11 -14 -10 -18 6 -30 16 -12 21 -12 33 0 17 17 9 46
-11 46 -8 0 -21 -7 -28 -16z"/>
<path d="M1496 4044 c-20 -19 -20 -34 0 -62 21 -30 59 -29 80 3 15 23 15 27 0
50 -19 29 -56 33 -80 9z"/>
<path d="M904 4001 c-34 -21 -64 -75 -64 -115 0 -44 27 -94 62 -116 26 -17 45
-20 87 -17 48 3 59 9 89 42 33 35 34 40 30 98 -4 54 -8 63 -41 93 -31 29 -44
34 -84 34 -29 0 -60 -7 -79 -19z"/>
<path d="M1695 3975 c-68 -12 -228 -74 -194 -75 9 0 41 11 70 24 148 65 365
65 523 -1 77 -32 83 -23 7 11 -117 52 -264 67 -406 41z"/>
<path d="M2157 3973 c-9 -9 12 -33 29 -33 8 0 14 9 14 20 0 19 -28 28 -43 13z"/>
<path d="M1652 3924 c-29 -7 -75 -23 -102 -35 l-49 -21 17 -34 c11 -25 20 -33
31 -28 92 38 141 48 261 48 112 0 133 -3 200 -27 41 -15 82 -30 91 -33 12 -4
20 4 28 27 6 17 11 34 11 36 0 9 -108 53 -165 68 -74 19 -251 19 -323 -1z"/>
<path d="M2230 3910 c0 -5 5 -10 10 -10 6 0 10 5 10 10 0 6 -4 10 -10 10 -5 0
-10 -4 -10 -10z"/>
<path d="M3018 3909 c-36 -21 -16 -79 27 -79 46 0 60 48 23 74 -26 19 -27 19
-50 5z"/>
<path d="M2709 3821 c-43 -43 -41 -93 7 -137 46 -44 84 -45 125 -5 20 21 29
39 29 63 l0 33 -18 -35 c-20 -40 -63 -65 -98 -56 -91 23 -82 138 12 156 l39 8
-33 1 c-25 1 -41 -7 -63 -28z"/>
<path d="M1394 3797 c-69 -50 -184 -173 -184 -195 0 -9 42 27 93 80 50 52 107
107 126 122 56 45 28 39 -35 -7z"/>
<path d="M2831 3814 c13 -17 26 -30 28 -27 3 2 -8 16 -24 31 l-28 27 24 -31z"/>
<path d="M2910 3811 c5 -14 12 -44 16 -66 l7 -40 7 30 c12 48 11 67 -2 59 -8
-5 -9 -2 -5 10 5 11 3 15 -5 10 -7 -5 -9 -2 -6 8 4 8 1 15 -7 15 -9 0 -11 -8
-5 -26z"/>
<path d="M2758 3803 c-29 -7 -34 -44 -8 -65 20 -16 25 -17 44 -5 27 18 31 40
11 61 -17 16 -18 17 -47 9z"/>
<path d="M1669 3746 c-210 -58 -377 -229 -425 -433 -21 -91 -15 -257 13 -333
16 -46 23 -54 41 -52 17 3 26 -7 44 -42 l22 -46 70 0 c61 0 78 -5 121 -30 l50
-30 -132 0 -132 0 -27 -35 c-24 -32 -30 -35 -81 -35 -202 0 -302 -230 -168
-387 46 -54 107 -83 173 -83 68 0 116 21 171 73 24 23 39 33 33 22 -6 -11 -20
-29 -31 -39 -12 -11 -21 -31 -21 -47 0 -20 -10 -35 -33 -53 -33 -25 -38 -26
-195 -26 -150 0 -162 -1 -172 -20 -7 -13 -9 -199 -8 -562 l3 -543 258 -3 c236
-2 257 -4 257 -20 0 -28 37 -80 69 -97 49 -25 106 -20 143 14 l32 29 27 -21
c59 -43 156 -15 194 56 l20 37 263 0 c226 0 262 2 262 15 0 13 -37 15 -275 15
-151 0 -275 3 -275 6 0 3 9 17 20 31 18 23 18 28 5 53 -22 42 -93 90 -133 90
-28 0 -44 -9 -83 -48 -26 -26 -50 -61 -54 -77 -4 -17 -8 -36 -11 -43 -3 -10
-77 -12 -346 -10 l-343 3 -3 529 c-2 392 1 532 9 543 10 11 44 14 162 12 l150
-1 40 31 c40 30 44 31 146 31 91 0 115 -4 174 -27 63 -25 73 -26 138 -17 60 8
72 7 85 -7 13 -15 12 -16 -9 -12 -27 5 -57 -27 -57 -59 0 -10 -15 -27 -32 -38
l-33 -20 -9 23 c-34 87 -36 87 -36 1 0 -105 -25 -159 -90 -192 -54 -27 -101
-28 -157 -3 -80 37 -117 152 -77 237 22 46 11 54 -26 19 -31 -30 -53 -89 -48
-128 3 -19 -4 -23 -57 -34 -39 -8 -66 -19 -77 -33 -22 -27 -23 -79 -4 -105 13
-17 10 -24 -25 -64 -22 -24 -54 -74 -72 -110 -30 -61 -32 -73 -32 -166 0 -92
3 -106 32 -168 36 -75 111 -161 172 -195 56 -32 51 -22 -8 16 -127 83 -205
256 -182 403 25 155 120 265 267 309 35 11 44 10 73 -8 l32 -19 -48 -7 c-107
-14 -206 -86 -260 -188 -25 -47 -28 -63 -28 -148 0 -85 3 -101 29 -150 16 -30
44 -68 62 -83 18 -16 33 -33 31 -39 -2 -13 89 -67 113 -68 8 0 -14 14 -49 30
-35 17 -62 32 -60 35 3 2 27 -7 54 -20 137 -68 291 -48 385 49 28 28 43 36 72
36 30 0 42 6 60 30 12 17 26 30 31 30 5 0 30 -18 54 -41 89 -82 255 -136 387
-126 130 10 252 75 340 183 28 34 52 61 54 59 11 -10 -46 -90 -97 -138 -136
-125 -313 -165 -497 -111 -74 21 -79 11 -8 -15 178 -67 373 -22 514 117 58 58
69 65 102 63 66 -4 107 66 53 91 -27 12 -30 24 -15 48 7 12 12 12 29 -4 17
-15 23 -16 36 -6 19 16 19 34 -1 51 -13 10 -19 10 -36 0 -18 -11 -20 -11 -15
3 4 9 9 38 13 65 l6 49 42 -30 c72 -50 160 -50 235 0 147 99 136 309 -21 388
-57 29 -94 29 -162 0 -53 -22 -39 -31 23 -15 157 40 291 -126 222 -276 -36
-78 -95 -115 -182 -115 -56 0 -92 15 -129 55 -24 26 -22 26 21 -5 93 -65 201
-45 261 49 26 41 29 53 26 107 -5 74 -39 126 -102 155 -71 32 -136 22 -182
-28 -14 -16 -23 -22 -19 -16 3 7 2 13 -4 13 -10 0 -51 -78 -51 -97 0 -6 -7
-16 -15 -23 -13 -10 -15 -9 -15 11 0 13 -14 53 -31 89 l-30 65 23 18 23 19
-31 -3 c-25 -3 -40 4 -72 33 -22 20 -50 41 -61 48 -12 6 -19 15 -16 21 13 19
48 8 78 -26 26 -30 37 -35 73 -35 60 0 159 33 272 90 105 54 159 104 206 190
29 54 27 58 -40 86 -36 15 -39 15 -49 -1 -62 -108 -162 -190 -284 -236 -63
-23 -194 -34 -261 -22 -75 14 -46 28 72 34 158 8 208 29 301 124 70 71 142
180 112 169 -8 -3 -25 -25 -39 -49 -33 -56 -129 -143 -184 -166 -66 -28 -65
-22 2 12 79 41 145 110 187 194 32 66 34 75 34 180 0 101 -2 115 -29 168 -15
32 -45 76 -65 97 -20 21 -41 47 -47 56 -6 10 -17 20 -25 23 -12 3 -12 1 1 -15
14 -18 14 -18 -2 -5 -10 7 -15 17 -13 22 9 14 -87 56 -157 68 -102 17 -193 0
-278 -54 -23 -15 -43 -25 -44 -23 -2 2 -8 12 -14 23 -10 19 -15 16 -65 -37
-30 -32 -72 -91 -93 -133 -34 -64 -37 -77 -26 -95 7 -12 12 -54 12 -105 0 -71
3 -86 18 -94 10 -5 26 -35 36 -68 9 -32 19 -64 22 -70 3 -7 1 -13 -4 -13 -5 0
-16 24 -24 53 -9 31 -20 52 -29 52 -8 0 -13 -8 -11 -18 5 -32 74 -136 113
-171 40 -37 147 -96 173 -96 10 0 13 -6 10 -15 -9 -22 -32 -18 -109 18 -183
88 -287 310 -244 519 19 92 84 213 149 278 32 32 73 66 91 76 29 15 34 15 44
1 10 -14 16 -14 56 -1 70 25 165 29 236 10 100 -25 162 -62 249 -150 64 -64
86 -94 104 -141 26 -69 38 -218 22 -277 -10 -36 -10 -36 25 -43 19 -3 37 -4
40 -2 2 3 7 37 10 77 4 48 11 74 20 77 11 4 13 18 8 62 -17 150 -69 257 -174
362 -117 117 -240 169 -400 169 -175 0 -313 -65 -424 -200 -93 -113 -139 -245
-140 -395 -1 -146 37 -257 131 -382 42 -56 51 -63 82 -63 49 0 133 -23 203
-55 59 -28 65 -33 45 -53 -8 -8 -17 -7 -37 7 -69 48 -215 72 -313 52 -136 -29
-260 -128 -320 -258 -77 -164 -37 -381 97 -517 154 -156 396 -168 560 -27 l30
26 -30 -33 c-41 -45 -137 -90 -219 -103 -90 -14 -170 0 -264 47 -237 120 -326
451 -182 677 66 104 206 204 309 222 23 4 41 11 41 16 0 12 -33 27 -48 22 -7
-3 -10 1 -6 10 3 8 -6 31 -20 51 -14 21 -28 45 -30 54 -5 14 -15 16 -51 14
-39 -4 -45 -7 -45 -27 0 -13 7 -31 16 -39 20 -21 60 -20 68 0 5 13 9 14 21 4
24 -20 18 -34 -27 -63 -47 -30 -81 -31 -126 -1 l-24 16 22 23 c19 20 20 26 10
47 -7 12 -14 24 -15 26 -2 2 -17 -4 -34 -12 -216 -112 -439 86 -352 314 19 50
86 143 122 168 24 16 18 27 -25 47 -61 29 -143 112 -176 178 -82 168 -52 355
80 487 100 100 226 144 356 122 194 -32 337 -183 360 -380 l6 -59 -47 -44
c-26 -24 -71 -76 -100 -115 -65 -86 -116 -112 -290 -149 -108 -23 -162 -41
-153 -51 3 -2 20 1 39 7 54 16 201 14 235 -4 48 -25 55 -49 46 -159 -5 -68 -4
-113 5 -150 18 -77 16 -99 -13 -143 l-26 -40 37 38 37 37 -12 69 c-12 67 -9
275 5 333 l7 26 -81 7 c-44 4 -78 11 -75 16 3 5 12 9 19 9 8 0 52 15 99 32 79
31 86 36 121 91 51 78 140 157 231 203 71 36 75 40 72 68 -2 23 -9 32 -26 34
-29 4 -44 27 -91 145 -54 135 -63 147 -111 147 -44 0 -70 26 -70 71 0 23 -8
32 -54 54 -29 14 -78 33 -107 40 -66 18 -207 18 -270 1z m1059 -767 c72 -24
177 -97 187 -130 5 -16 2 -26 -9 -35 -15 -11 -15 -15 6 -50 33 -57 38 -189 8
-266 -12 -32 -25 -60 -29 -63 -5 -2 3 23 16 57 22 53 25 73 21 148 -3 71 -9
95 -31 132 -14 25 -24 48 -21 51 3 3 0 8 -7 13 -8 5 -10 3 -4 -5 4 -7 -14 8
-39 34 -59 58 -122 87 -207 93 -74 5 -162 -16 -200 -48 -23 -19 -22 -19 25 1
138 60 314 17 401 -96 96 -127 84 -297 -29 -410 -191 -191 -536 -44 -536 227
0 82 27 159 75 215 22 26 32 47 29 59 -4 14 4 24 27 38 101 60 209 72 317 35z
m-491 -145 c-17 -30 -33 -51 -35 -45 -5 15 48 112 58 106 5 -3 -6 -30 -23 -61z
m-697 -106 c-35 -38 -70 -108 -77 -155 -7 -43 -16 -42 -38 7 -10 22 -27 47
-38 57 l-21 18 21 -30 c72 -105 83 -190 34 -266 -69 -109 -212 -134 -314 -56
-78 59 -110 193 -68 276 43 82 123 127 217 119 52 -4 55 -3 80 29 l25 33 104
0 104 0 -29 -32z m671 6 c-2 -10 -6 -50 -8 -87 -8 -115 46 -246 131 -319 33
-29 112 -67 167 -81 27 -7 49 -17 47 -23 -10 -30 -157 36 -229 103 -92 85
-149 249 -133 381 4 33 11 51 18 49 6 -2 9 -13 7 -23z m16 -126 c-2 -18 -4 -4
-4 32 0 36 2 50 4 33 2 -18 2 -48 0 -65z m10 -70 c-3 -8 -6 -5 -6 6 -1 11 2
17 5 13 3 -3 4 -12 1 -19z m583 -193 c-24 -24 -47 -42 -52 -38 -6 3 3 13 19
23 15 9 37 27 47 39 11 11 22 21 25 21 3 0 -15 -20 -39 -45z m-1290 -10 c0 -8
-4 -15 -9 -15 -13 0 -22 16 -14 24 11 11 23 6 23 -9z m1167 -72 c12 -40 6 -53
-29 -53 -23 0 -37 68 -17 81 25 15 34 10 46 -28z m238 -82 c-17 -16 -128 -81
-139 -81 -6 0 12 13 40 28 27 16 61 36 74 45 27 18 40 23 25 8z m-165 -91 c-8
-5 -22 -9 -30 -9 -10 0 -8 3 5 9 27 12 43 12 25 0z m-70 -20 c-14 -4 -32 -8
-40 -9 -13 -1 -13 0 0 9 8 5 26 9 40 9 l25 -1 -25 -8z m-188 -76 c63 -67 92
-110 83 -124 -10 -16 -20 -12 -37 18 -9 15 -40 50 -68 79 -35 34 -51 57 -47
67 4 9 9 16 11 16 3 0 29 -25 58 -56z m-174 22 c54 -19 122 -66 157 -108 16
-18 44 -65 62 -105 57 -119 46 -237 -32 -344 -72 -98 -191 -159 -307 -159 -89
0 -110 7 -97 31 6 11 21 19 37 20 20 0 16 3 -19 13 -147 39 -242 161 -243 310
0 141 96 265 234 302 31 9 37 13 19 13 -37 1 -121 -44 -169 -91 -122 -118
-128 -320 -13 -448 25 -28 67 -62 92 -76 25 -13 35 -22 21 -18 -42 11 -109 63
-146 112 -49 67 -67 137 -62 236 7 119 54 204 151 270 91 62 212 78 315 42z
m-769 -231 c72 -25 101 -52 101 -91 0 -19 -3 -34 -6 -34 -3 0 -24 15 -45 34
-45 38 -91 52 -197 61 -69 6 -77 5 -115 -21 -35 -22 -39 -23 -23 -6 10 12 41
33 69 47 60 29 150 34 216 10z m1151 -74 c0 -102 -42 -251 -71 -251 -5 0 -3
12 5 28 24 46 39 148 34 227 -3 41 -2 77 1 80 14 14 31 -33 31 -84z m-1151 -7
c64 -32 107 -93 116 -163 3 -25 8 -62 11 -81 3 -22 2 -30 -4 -22 -7 10 -11 5
-15 -16 -3 -17 -21 -47 -39 -68 -68 -77 -172 -95 -269 -46 -74 37 -111 92
-117 172 -6 81 16 138 73 188 76 67 157 79 244 36z m-339 -38 c0 -2 -8 -10
-17 -17 -16 -13 -17 -12 -4 4 13 16 21 21 21 13z m-73 -213 c-2 -16 -4 -3 -4
27 0 30 2 43 4 28 2 -16 2 -40 0 -55z m22 -88 c0 -5 -4 -3 -9 5 -5 8 -9 22 -9
30 0 16 17 -16 18 -35z m553 -28 c-39 -87 -109 -145 -202 -166 -50 -11 -66 -7
-73 20 -5 17 0 19 46 19 31 0 67 8 93 20 50 25 121 99 136 143 7 17 13 26 15
20 3 -7 -4 -32 -15 -56z m169 -130 c65 -50 34 -137 -48 -137 -44 0 -73 30 -73
75 0 45 29 75 73 75 17 0 39 -6 48 -13z m-141 -128 c0 -5 -4 -9 -10 -9 -5 0
-10 7 -10 16 0 8 5 12 10 9 6 -3 10 -10 10 -16z m-107 -45 c41 -7 46 -18 20
-46 -23 -26 -60 -22 -90 8 -21 21 -23 28 -12 35 17 10 31 11 82 3z m250 -1 c4
-3 0 -15 -10 -25 -21 -23 -76 -24 -99 0 -17 16 -15 17 37 23 30 3 57 6 60 7 3
1 9 -1 12 -5z"/>
<path d="M2442 2873 c-148 -101 -174 -297 -56 -423 60 -64 123 -91 219 -91 97
-1 196 42 195 84 0 7 -5 4 -11 -6 -29 -50 -177 -82 -266 -58 -66 18 -132 70
-167 131 -27 47 -31 65 -31 125 1 108 53 192 147 239 32 16 44 26 31 26 -11 0
-38 -12 -61 -27z"/>
<path d="M2528 2864 c-92 -28 -169 -156 -154 -256 10 -64 55 -131 111 -164 86
-50 186 -42 269 21 25 19 47 31 49 27 2 -4 3 -2 1 4 -1 7 4 21 13 33 21 31 28
122 12 178 -18 67 -97 145 -161 161 -59 15 -81 14 -140 -4z m-41 -117 l25 17
-22 -44 c-60 -117 44 -244 173 -212 29 8 37 8 28 -1 -20 -20 -123 -20 -161 1
-69 38 -97 115 -69 188 10 27 9 27 -9 11 -10 -9 -24 -17 -30 -17 -15 0 -15 35
0 63 l11 21 14 -21 c14 -21 16 -21 40 -6z m281 -53 c1 -11 -6 -25 -19 -32 -18
-12 -24 -11 -38 3 -15 15 -14 17 9 35 29 23 44 21 48 -6z"/>
<path d="M1146 2636 c-83 -50 -111 -157 -63 -241 72 -127 249 -122 308 9 23
50 24 95 4 143 -20 48 -41 71 -87 94 -51 26 -114 24 -162 -5z"/>
<path d="M2246 1986 c114 -22 182 -65 239 -149 19 -28 35 -47 35 -41 0 17 -54
87 -91 118 -51 43 -127 75 -194 81 l-60 5 71 -14z"/>
<path d="M2135 1871 c-151 -70 -169 -275 -33 -367 91 -61 189 -52 269 25 72
70 87 147 45 237 -49 106 -176 153 -281 105z"/>
<path d="M2525 1760 c3 -14 10 -48 15 -75 l9 -50 -5 59 c-2 32 -9 66 -14 75
-8 12 -9 10 -5 -9z"/>
<path d="M2532 1610 c0 -14 2 -19 5 -12 2 6 2 18 0 25 -3 6 -5 1 -5 -13z"/>
<path d="M2505 1539 c-37 -81 -131 -157 -222 -178 -29 -7 -32 -9 -13 -10 38
-1 123 43 174 89 41 38 95 125 84 136 -3 2 -13 -14 -23 -37z"/>
<path d="M2203 1343 c9 -2 23 -2 30 0 6 3 -1 5 -18 5 -16 0 -22 -2 -12 -5z"/>
<path d="M1426 1640 c-65 -20 -115 -103 -100 -167 17 -68 73 -113 142 -113 72
0 142 71 142 145 0 89 -98 161 -184 135z"/>
<path d="M3873 3714 c-6 -16 15 -37 29 -28 4 3 8 14 8 25 0 23 -28 26 -37 3z"/>
<path d="M2513 3713 c9 -2 23 -2 30 0 6 3 -1 5 -18 5 -16 0 -22 -2 -12 -5z"/>
<path d="M2597 3689 c45 -22 81 -69 93 -123 7 -27 8 -28 9 -6 2 54 -80 150
-128 150 -9 0 3 -9 26 -21z"/>
<path d="M3109 3691 c-21 -18 -22 -21 -9 -35 8 -8 33 -16 55 -18 35 -3 40 0
43 19 2 13 -5 27 -20 37 -29 21 -41 20 -69 -3z"/>
<path d="M2475 3652 c-16 -11 -36 -26 -44 -35 -7 -9 -16 -15 -20 -12 -11 6 4
-87 18 -113 19 -36 75 -56 117 -42 74 25 98 108 48 172 l-26 33 31 -33 c88
-92 -23 -237 -137 -178 -38 20 -54 47 -63 106 l-6 45 -2 -44 c-4 -143 177
-185 240 -54 17 35 19 48 9 82 -21 79 -99 113 -165 73z m63 -86 c4 -21 -14
-37 -35 -29 -14 5 -18 35 -6 47 12 12 38 1 41 -18z"/>
<path d="M3222 3645 c0 -16 2 -22 5 -12 2 9 2 23 0 30 -3 6 -5 -1 -5 -18z"/>
<path d="M1050 3639 c0 -5 5 -7 10 -4 6 3 10 8 10 11 0 2 -4 4 -10 4 -5 0 -10
-5 -10 -11z"/>
<path d="M3954 3639 c-9 -15 11 -33 30 -26 9 4 13 13 10 22 -7 17 -30 20 -40
4z"/>
<path d="M889 3624 c-10 -13 -10 -17 1 -24 14 -9 40 4 40 20 0 16 -29 18 -41
4z"/>
<path d="M977 3583 c-38 -63 -90 -174 -83 -180 2 -2 13 20 26 49 12 29 40 81
61 117 22 35 38 66 35 68 -2 2 -20 -22 -39 -54z"/>
<path d="M3684 3630 c86 -26 130 -133 92 -223 -27 -66 -115 -115 -182 -102
-34 6 -64 -9 -64 -33 0 -13 56 -32 94 -32 37 0 124 39 148 66 53 60 66 175 26
245 -24 43 -90 90 -124 88 -12 0 -9 -4 10 -9z"/>
<path d="M3514 3588 l-19 -23 23 19 c12 11 22 21 22 23 0 8 -8 2 -26 -19z"/>
<path d="M2798 3593 c7 -3 16 -2 19 1 4 3 -2 6 -13 5 -11 0 -14 -3 -6 -6z"/>
<path d="M3585 3591 c-67 -29 -95 -126 -55 -189 43 -70 140 -75 194 -11 48 57
47 126 -3 173 -32 30 -99 43 -136 27z m83 -87 c4 -30 -21 -48 -47 -34 -23 12
-28 45 -8 54 25 10 52 1 55 -20z"/>
<path d="M1197 3530 c-15 -26 -27 -52 -27 -56 0 -5 14 15 31 44 17 30 29 55
27 57 -2 2 -16 -18 -31 -45z"/>
<path d="M3966 3571 c-3 -5 1 -14 8 -20 16 -13 32 2 21 19 -8 12 -22 13 -29 1z"/>
<path d="M2941 3515 c-91 -77 -74 -233 34 -300 42 -26 58 -30 121 -30 64 0 77
3 116 30 107 76 119 216 25 301 l-32 29 27 -30 c58 -64 72 -139 39 -211 -60
-133 -273 -145 -350 -21 -46 75 -36 162 26 222 42 41 38 46 -6 10z"/>
<path d="M3011 3518 c-57 -38 -76 -73 -76 -133 0 -92 60 -150 155 -150 96 0
155 58 154 151 0 87 -56 144 -146 152 -44 3 -59 0 -87 -20z m97 -145 c5 -10 7
-24 5 -30 -6 -18 -42 -16 -49 2 -15 38 26 63 44 28z"/>
<path d="M1719 3507 c-81 -23 -163 -99 -194 -180 -22 -57 -17 -175 9 -224 18
-36 74 -103 85 -103 5 0 -9 18 -29 39 -63 66 -87 178 -59 271 18 59 78 130
139 164 115 64 270 30 351 -78 63 -83 81 -203 45 -291 -13 -33 -13 -37 -1 -20
42 53 44 178 5 254 -30 60 -94 126 -144 150 -54 27 -148 35 -207 18z"/>
<path d="M2738 3480 c-19 -15 -21 -22 -12 -37 22 -36 74 -23 74 18 0 31 -34
42 -62 19z m22 -20 c0 -5 -4 -10 -10 -10 -5 0 -10 5 -10 10 0 6 5 10 10 10 6
0 10 -4 10 -10z"/>
<path d="M3461 3464 c0 -11 3 -14 6 -6 3 7 2 16 -1 19 -3 4 -6 -2 -5 -13z"/>
<path d="M1156 3445 c-9 -26 -7 -32 5 -12 6 10 9 21 6 23 -2 3 -7 -2 -11 -11z"/>
<path d="M4237 3444 c-4 -4 -7 -16 -7 -26 0 -14 6 -19 23 -16 14 2 22 10 22
23 0 20 -25 32 -38 19z"/>
<path d="M1136 3384 c-4 -14 -5 -28 -3 -31 3 -2 8 8 11 23 4 14 5 28 3 31 -3
2 -8 -8 -11 -23z"/>
<path d="M3375 3360 c-4 -30 -15 -74 -25 -97 -21 -48 -86 -115 -130 -133 -16
-7 -30 -16 -30 -21 0 -31 -127 -52 -150 -24 -10 12 -2 15 52 18 l63 3 -71 2
c-49 1 -75 7 -84 17 -7 8 -49 39 -94 69 -69 45 -84 60 -94 92 -6 22 -22 45
-34 53 -22 13 -22 13 -6 -5 9 -10 20 -32 23 -47 l7 -28 -38 16 c-46 19 -56 32
-51 67 3 23 1 26 -11 16 -9 -8 -12 -23 -9 -45 l6 -33 -75 0 c-66 0 -74 -2 -74
-19 0 -16 10 -19 88 -24 117 -6 175 -27 281 -98 150 -100 237 -220 281 -389
10 -41 19 -67 19 -57 1 14 11 17 64 17 35 0 88 -5 119 -11 61 -12 84 -5 143
47 35 31 17 22 -40 -19 l-40 -28 -13 32 c-18 44 -36 56 -106 68 -32 6 -64 15
-71 21 -11 9 -12 7 -8 -10 9 -33 -19 -15 -50 32 -56 87 -23 222 66 270 36 19
130 24 174 8 25 -9 26 -9 10 4 -30 23 -97 28 -154 11 -85 -25 -135 -101 -137
-208 l-1 -48 -23 28 c-12 15 -25 38 -28 50 -9 34 39 107 94 144 26 18 62 46
80 63 32 30 36 31 143 34 60 2 109 7 109 12 0 4 -14 13 -30 20 -40 17 -88 72
-115 134 l-22 51 -8 -55z"/>
<path d="M3480 3391 c0 -6 4 -13 10 -16 6 -3 7 1 4 9 -7 18 -14 21 -14 7z"/>
<path d="M866 3344 c-9 -26 -16 -52 -15 -58 0 -6 9 13 20 43 10 30 17 56 15
58 -2 2 -11 -17 -20 -43z"/>
<path d="M1718 3370 c-107 -58 -119 -213 -21 -287 45 -35 125 -43 177 -18 114
54 129 216 29 292 -47 36 -132 42 -185 13z"/>
<path d="M4247 3364 c-14 -15 -6 -34 14 -34 14 0 19 5 17 17 -3 18 -20 27 -31
17z"/>
<path d="M1121 3324 c0 -11 3 -14 6 -6 3 7 2 16 -1 19 -3 4 -6 -2 -5 -13z"/>
<path d="M841 3254 c0 -11 3 -14 6 -6 3 7 2 16 -1 19 -3 4 -6 -2 -5 -13z"/>
<path d="M831 3214 c0 -11 3 -14 6 -6 3 7 2 16 -1 19 -3 4 -6 -2 -5 -13z"/>
<path d="M822 3165 c0 -16 2 -22 5 -12 2 9 2 23 0 30 -3 6 -5 -1 -5 -18z"/>
<path d="M813 3095 c0 -22 2 -30 4 -17 2 12 2 30 0 40 -3 9 -5 -1 -4 -23z"/>
<path d="M1000 3113 c-54 -20 -75 -77 -44 -121 45 -64 143 -36 144 40 0 47
-60 95 -100 81z"/>
<path d="M3345 3041 c-28 -12 -45 -33 -61 -78 -7 -21 -13 -30 -14 -20 0 10 5
28 11 40 10 21 10 21 -5 3 -9 -11 -17 -31 -17 -45 -1 -25 -2 -25 -9 4 -7 28
-8 28 -9 -12 -1 -34 4 -45 29 -67 17 -14 48 -31 69 -37 41 -12 106 -5 117 12
4 7 -2 9 -17 5 -22 -6 -21 -5 3 9 55 31 65 103 23 153 -13 16 -23 31 -21 33 8
8 -80 8 -99 0z m79 -97 c8 -22 -12 -56 -31 -52 -22 4 -38 32 -30 52 8 21 53
21 61 0z m-109 -83 c3 -2 26 -10 52 -18 l48 -13 -45 5 c-48 6 -90 40 -90 73 0
11 6 6 16 -13 8 -16 17 -31 19 -34z"/>
<path d="M3385 2930 c4 -6 11 -8 16 -5 14 9 11 15 -7 15 -8 0 -12 -5 -9 -10z"/>
<path d="M3480 3012 c13 -19 23 -51 24 -72 0 -22 4 -33 8 -27 5 8 8 6 8 -7 0
-10 -17 -36 -39 -57 -44 -44 -39 -52 8 -13 17 14 35 42 41 62 12 43 12 66 0
37 -6 -17 -9 -15 -15 16 -3 20 -18 49 -32 65 l-25 29 22 -33z"/>
<path d="M1683 3019 c-36 -36 19 -69 115 -69 65 0 88 15 77 50 -5 16 -15 20
-49 20 -24 0 -63 3 -87 6 -29 4 -48 1 -56 -7z"/>
<path d="M1035 2898 c-32 -17 -45 -39 -45 -79 0 -106 163 -123 184 -18 15 75
-70 135 -139 97z m86 -18 c10 -6 19 -16 19 -22 0 -6 -7 -5 -17 5 -10 8 -29 17
-43 20 -24 4 -24 4 -2 6 13 0 32 -4 43 -9z m-87 -70 c4 -25 3 -31 -4 -20 -5 8
-10 26 -10 39 0 32 6 24 14 -19z"/>
<path d="M3474 2868 l-19 -23 23 19 c12 11 22 21 22 23 0 8 -8 2 -26 -19z"/>
<path d="M847 2853 c-4 -3 -7 -80 -7 -170 l0 -163 30 0 30 0 0 -245 0 -245 23
0 c21 0 22 -3 19 -81 -4 -101 -25 -104 -32 -3 -5 69 -5 69 -13 24 -4 -25 -9
-56 -11 -70 -2 -14 -4 110 -3 275 l2 300 -24 3 -24 4 7 -409 c4 -260 9 -409
16 -411 6 -2 10 36 10 103 0 81 3 106 13 103 8 -3 14 -39 18 -114 l5 -109 2
108 c2 89 5 107 18 107 13 0 15 -17 12 -120 -2 -69 1 -115 6 -110 14 14 21
570 7 570 -8 0 -11 84 -11 308 0 169 -3 317 -6 330 -5 18 -13 22 -43 22 -21 0
-41 -3 -44 -7z"/>
<path d="M1715 2803 c36 -6 45 -17 45 -60 0 -30 -3 -33 -30 -33 -28 0 -90 -24
-90 -35 0 -2 16 3 35 11 79 33 168 12 237 -57 26 -26 44 -40 39 -31 -17 33
-99 101 -128 107 -51 12 -53 14 -53 55 0 37 2 40 29 40 42 0 91 -19 136 -53
37 -29 38 -29 16 -4 -44 48 -98 67 -187 66 -43 -1 -66 -4 -49 -6z"/>
<path d="M3011 2754 c0 -11 3 -14 6 -6 3 7 2 16 -1 19 -3 4 -6 -2 -5 -13z"/>
<path d="M3021 2666 c-1 -46 2 -67 9 -60 6 6 7 31 1 69 l-9 60 -1 -69z"/>
<path d="M2121 2618 c1 -109 17 -133 18 -26 1 48 -3 90 -9 93 -6 4 -10 -21 -9
-67z"/>
<path d="M1680 2633 c-51 -27 -80 -76 -80 -137 0 -93 56 -146 154 -146 56 0
61 2 102 44 40 39 44 48 44 91 0 92 -53 155 -139 162 -31 3 -57 -2 -81 -14z
m124 -43 c5 -5 -14 -18 -43 -31 -29 -12 -65 -38 -81 -57 -24 -29 -30 -33 -36
-19 -10 27 28 90 66 110 34 17 75 16 94 -3z m26 -200 c-14 -11 -29 -20 -35
-20 -5 0 4 9 20 20 38 25 48 25 15 0z m-53 -26 c-3 -3 -12 -4 -19 -1 -8 3 -5
6 6 6 11 1 17 -2 13 -5z"/>
<path d="M3243 2623 c-16 -3 -23 -12 -23 -26 0 -21 5 -22 73 -22 62 0 83 -5
140 -33 191 -94 233 -322 94 -504 -47 -61 -31 -62 32 -3 73 68 94 126 89 239
-3 80 -8 99 -38 154 -40 76 -115 145 -185 171 -53 20 -145 32 -182 24z"/>
<path d="M3022 2565 c0 -16 2 -22 5 -12 2 9 2 23 0 30 -3 6 -5 -1 -5 -18z"/>
<path d="M3221 2544 c0 -11 3 -14 6 -6 3 7 2 16 -1 19 -3 4 -6 -2 -5 -13z"/>
<path d="M3260 2357 c-38 -13 -74 -59 -91 -118 -10 -31 -9 -43 7 -75 39 -80
135 -108 205 -61 43 29 59 60 59 117 0 98 -90 167 -180 137z"/>
<path d="M3119 2183 c-13 -16 -12 -17 4 -4 16 13 21 21 13 21 -2 0 -10 -8 -17
-17z"/>
<path d="M4107 2193 c-14 -13 -7 -51 11 -55 27 -7 42 2 42 27 0 27 -35 46 -53
28z"/>
<path d="M1522 2147 c-32 -18 -53 -52 -45 -73 4 -11 3 -15 -4 -11 -12 7 -9
-11 9 -71 19 -63 111 -83 167 -36 60 50 48 150 -23 179 -40 17 -69 11 -116
-23 -23 -17 -30 -20 -20 -7 8 10 29 26 45 37 33 20 23 24 -13 5z m96 -53 c12
-8 22 -26 22 -40 0 -29 -32 -64 -59 -64 -18 0 -61 43 -61 60 0 16 43 60 59 60
9 0 27 -7 39 -16z"/>
<path d="M1642 2145 c35 -20 68 -75 68 -115 0 -98 -121 -163 -207 -110 -41 25
-56 53 -64 120 l-6 55 -2 -53 c0 -29 4 -63 10 -75 51 -99 166 -112 243 -27 31
35 36 47 36 91 0 46 -4 55 -39 90 -21 22 -45 39 -52 39 -8 -1 -2 -7 13 -15z"/>
<path d="M3073 2132 l-33 -28 50 -49 c27 -26 48 -52 47 -56 -2 -8 1 -9 48 -9
19 0 35 4 35 9 0 4 -19 21 -42 36 -23 15 -54 41 -70 58 -26 29 -26 32 -11 49
23 26 13 21 -24 -10z"/>
<path d="M793 2095 c0 -22 2 -30 4 -17 2 12 2 30 0 40 -3 9 -5 -1 -4 -23z"/>
<path d="M1770 2110 c0 -5 7 -10 15 -10 8 0 15 5 15 10 0 6 -7 10 -15 10 -8 0
-15 -4 -15 -10z"/>
<path d="M1054 2085 c-13 -51 -4 -56 108 -53 l103 3 0 35 0 35 -102 3 c-102 3
-102 3 -109 -23z"/>
<path d="M3000 2101 c0 -5 7 -11 15 -15 8 -3 14 -11 13 -17 -2 -6 3 -14 10
-16 10 -4 10 2 -2 26 -16 29 -36 42 -36 22z"/>
<path d="M3774 2069 c-8 -14 11 -33 25 -25 6 4 11 14 11 22 0 16 -26 19 -36 3z"/>
<path d="M2759 1939 c-27 -27 -12 -36 26 -16 23 11 24 15 11 26 -12 10 -19 8
-37 -10z"/>
<path d="M3275 1940 c-3 -5 1 -10 9 -10 9 0 16 5 16 10 0 6 -4 10 -9 10 -6 0
-13 -4 -16 -10z"/>
<path d="M4100 1900 c0 -5 5 -10 10 -10 6 0 10 5 10 10 0 6 -4 10 -10 10 -5 0
-10 -4 -10 -10z"/>
<path d="M3246 1874 c-9 -8 -16 -23 -16 -32 0 -13 5 -11 20 8 29 37 26 55 -4
24z"/>
<path d="M3426 1835 c7 -19 14 -42 14 -51 0 -32 -33 -84 -65 -104 -36 -22 -62
-18 -115 20 -15 11 -31 16 -35 12 -5 -4 -6 -2 -3 3 3 6 2 30 -2 55 l-7 45 -2
-56 c-1 -40 -9 -72 -29 -112 -16 -31 -23 -52 -17 -47 7 5 16 6 20 2 5 -4 5 -2
1 5 -11 19 15 65 33 57 75 -30 111 -29 169 6 37 23 72 75 72 108 0 28 -28 92
-41 92 -4 0 -1 -16 7 -35z"/>
<path d="M3317 1831 c-40 -40 -35 -81 11 -96 42 -13 82 52 54 90 -23 32 -37
33 -65 6z"/>
<path d="M4027 1747 l-17 -32 20 24 c17 20 26 41 18 41 -2 0 -11 -15 -21 -33z"/>
<path d="M3207 1589 c7 -7 15 -10 18 -7 3 3 -2 9 -12 12 -14 6 -15 5 -6 -5z"/>
<path d="M3350 1505 c0 -8 5 -15 10 -15 6 0 10 7 10 15 0 8 -4 15 -10 15 -5 0
-10 -7 -10 -15z"/>
<path d="M2851 1464 c-11 -15 -18 -30 -15 -35 3 -5 1 -9 -4 -9 -6 0 -6 -19 -1
-47 10 -54 54 -104 92 -102 17 1 14 3 -11 10 -38 11 -72 60 -72 104 0 17 9 47
19 68 22 44 20 47 -8 11z"/>
<path d="M2908 1428 c-30 -24 -31 -56 -4 -83 30 -30 49 -32 76 -5 51 51 -15
132 -72 88z"/>
<path d="M3326 1301 c-10 -16 5 -41 24 -41 19 0 34 25 24 41 -3 5 -14 9 -24 9
-10 0 -21 -4 -24 -9z"/>
<path d="M1200 1236 c0 -2 8 -10 18 -17 15 -13 16 -12 3 4 -13 16 -21 21 -21
13z"/>
<path d="M3175 1231 c-35 -15 -74 -65 -81 -101 l-6 -35 22 32 c33 49 82 75
142 75 46 -1 50 1 36 14 -18 19 -85 27 -113 15z"/>
<path d="M2660 1204 c-48 -41 -87 -134 -55 -134 9 0 15 9 15 23 0 33 35 84 70
102 16 8 30 20 30 25 0 18 -28 10 -60 -16z"/>
<path d="M3971 1206 c-20 -24 -9 -69 21 -85 24 -14 28 -14 47 3 23 21 28 65 9
84 -17 17 -63 15 -77 -2z"/>
<path d="M3199 1170 c-45 -24 -99 -84 -99 -111 0 -58 58 -109 125 -109 78 0
135 59 135 138 0 35 -6 49 -29 73 -35 35 -78 38 -132 9z"/>
<path d="M2753 1159 c-45 -22 -64 -45 -82 -101 -7 -20 -18 -39 -26 -42 -22 -8
-18 -29 4 -23 14 3 22 -5 35 -34 33 -75 142 -108 204 -62 53 39 74 82 70 141
-5 59 -38 104 -95 128 -43 19 -61 18 -110 -7z m137 -66 c32 -41 27 -105 -11
-145 l-31 -33 26 33 c37 48 36 104 -3 143 -52 52 -126 29 -151 -46 -10 -30 -9
-41 8 -75 24 -48 19 -52 -8 -7 -26 42 -25 76 3 118 42 63 123 68 167 12z m-42
-25 c28 -28 7 -78 -33 -78 -27 0 -45 18 -45 45 0 27 18 45 45 45 12 0 26 -5
33 -12z m-20 -155 c-10 -2 -26 -2 -35 0 -10 3 -2 5 17 5 19 0 27 -2 18 -5z"/>
<path d="M3462 1154 c-12 -8 -22 -25 -22 -38 0 -26 38 -66 63 -66 10 0 20 -8
24 -17 22 -64 94 -83 138 -38 26 25 34 78 15 90 -6 3 -7 -1 -4 -10 10 -26 -16
-73 -46 -83 -58 -21 -101 39 -70 98 7 13 7 20 0 20 -5 0 -10 6 -10 14 0 32
-57 52 -88 30z m74 -45 c9 -16 -29 -51 -48 -44 -19 7 -31 32 -22 46 7 13 61
11 70 -2z"/>
<path d="M3380 1151 c0 -6 5 -13 10 -16 6 -3 10 1 10 9 0 9 -4 16 -10 16 -5 0
-10 -4 -10 -9z"/>
<path d="M3585 1110 c2 -4 -2 -13 -10 -20 -18 -15 -20 -61 -3 -78 18 -18 56
-14 78 8 23 23 25 39 8 63 -13 17 -83 43 -73 27z"/>
<path d="M3770 1060 c0 -13 7 -20 20 -20 13 0 20 7 20 20 0 13 -7 20 -20 20
-13 0 -20 -7 -20 -20z"/>
<path d="M2436 1005 c-8 -22 10 -26 90 -23 53 2 69 6 69 18 0 23 -150 27 -159
5z"/>
<path d="M3523 954 c-8 -21 13 -42 28 -27 13 13 5 43 -11 43 -6 0 -13 -7 -17
-16z"/>
</g>
</svg>